# xmcd
#
# Track frame offsets:
#	150
#	19961
#	42283
#	58765
#	71686
#	87455
#	99525
#	110193
#	124697
#	147070
#	163840
#	179468
#
# Disc length: 2695 seconds
# Revision: 0
# Processed by: cddbd v1.5.2PL0 Copyright (c) Steve Scherf et al.
# Submitted via: dBpowerAMP V12.0
#
DISCID=b00a850c
DTITLE=Gram Parsons - Solo Years
DYEAR=1900
DGENRE=
TTITLE0=Return of The Grievous Angel
TTITLE1=A Song For You
TTITLE2=Love Hurts
TTITLE3=Streets of Baltimore
TTITLE4=Ooh Las Vegas
TTITLE5=Still Feeling Blue
TTITLE6=I Cant Dance
TTITLE7=We'll Sweep Out The Ashes in The Morning
TTITLE8=She
TTITLE9=In my Hour of Darkness
TTITLE10=Brass Buttons
TTITLE11=$1000 Wedding
EXTD=
EXTT0=
EXTT1=
EXTT2=
EXTT3=
EXTT4=
EXTT5=
EXTT6=
EXTT7=
EXTT8=
EXTT9=
EXTT10=
EXTT11=
PLAYORDER=
